<svg width="66" height="58" viewBox="0 0 66 58" fill="none" xmlns="http://www.w3.org/2000/svg">
<path d="M17.0244 49.9541L13.912 55.3679C12.7696 57.3381 10.2529 58.017 8.26622 56.8746C6.29599 55.7322 5.61712 53.2157 6.75951 51.2288L9.06087 47.2388L9.27623 46.858C9.67355 46.2951 10.6504 45.3183 12.5874 45.5003C12.5874 45.5003 17.1736 45.997 17.5045 48.3812C17.5045 48.3978 17.5543 49.1758 17.0244 49.9541ZM61.3124 36.146H51.5774C50.9151 36.0964 50.6172 35.8647 50.5178 35.7321V35.7157L40.0873 17.6693L40.0707 17.6859L39.4416 16.7918C38.4152 15.2189 36.7925 19.2256 36.7925 19.2256C34.8555 23.6957 37.0741 28.762 37.8357 30.3017L52.3059 55.3845C53.4482 57.3547 55.9648 58.0334 57.9516 56.891C59.9216 55.7486 60.6005 53.2321 59.4581 51.2454L55.8324 44.9706C55.766 44.8216 55.6336 44.4077 56.3787 44.4077H61.2958C63.5806 44.4077 65.4184 42.5534 65.4184 40.2851C65.435 38.0003 63.5972 36.146 61.3124 36.146ZM42.4051 41.7586C42.4051 41.7586 42.9184 44.4077 40.9152 44.4077H38.8953H4.90525C2.62047 44.4077 0.782806 42.5534 0.782806 40.2851C0.782806 38.0003 2.63707 36.1626 4.90525 36.1626H14.1603C15.6503 36.0798 16.0146 35.219 16.0146 35.219L28.1005 14.2919C28.3159 13.8946 28.1337 13.5136 28.1005 13.4474L24.1105 6.54352C22.9681 4.57329 23.647 2.04017 25.6172 0.897777C27.5874 -0.24461 30.1204 0.434258 31.2628 2.40449L33.1172 5.6163L34.9715 2.42108C36.1139 0.45085 38.6304 -0.228019 40.617 0.914369C42.5873 2.05676 43.2661 4.57329 42.1237 6.56012L25.3191 35.6659C25.2529 35.8481 25.2199 36.1294 25.7662 36.1626H35.8157V36.262C35.7993 36.2454 41.6104 36.3282 42.4051 41.7586Z" fill="white"/>
</svg>
