<?xml version="1.0" standalone="no"?>
<!DOCTYPE svg PUBLIC "-//W3C//DTD SVG 20010904//EN"
 "http://www.w3.org/TR/2001/REC-SVG-20010904/DTD/svg10.dtd">
<svg version="1.0" xmlns="http://www.w3.org/2000/svg"
 width="158.000000pt" height="170.000000pt" viewBox="0 0 158.000000 170.000000"
 preserveAspectRatio="xMidYMid meet">

<g transform="translate(0.000000,170.000000) scale(0.100000,-0.100000)"
fill="#000000" stroke="none">
<path d="M713 1549 c-150 -14 -283 -78 -393 -190 -120 -120 -178 -240 -199
-406 -43 -341 170 -660 499 -749 88 -23 262 -23 350 0 213 58 398 233 471 446
16 48 23 97 26 190 6 152 -7 214 -73 348 -124 252 -383 390 -681 361z m108
-350 c54 -19 97 -56 124 -110 14 -27 30 -49 37 -49 25 0 82 -55 101 -99 44
-98 18 -260 -53 -331 -53 -53 -112 -70 -241 -70 l-108 0 2 57 2 57 -35 6 c-50
9 -94 34 -109 64 -18 32 -8 92 19 121 23 25 81 45 128 45 30 0 31 1 37 58 13
120 7 112 91 112 41 0 74 4 74 8 0 11 -50 57 -77 71 -12 6 -51 11 -86 11 l-65
0 -6 -37 c-3 -21 -8 -64 -12 -95 -6 -52 -9 -58 -30 -58 -12 0 -26 5 -29 10 -4
6 -2 52 5 103 18 151 7 137 109 137 48 0 103 -5 122 -11z"/>
<path d="M785 944 c-4 -31 -5 -56 -3 -57 18 -10 111 -37 114 -34 3 3 8 37 11
76 l6 71 -60 0 -61 0 -7 -56z"/>
<path d="M970 944 c0 -22 -6 -61 -14 -86 l-13 -45 44 -26 c24 -15 45 -27 47
-27 2 0 6 17 9 38 9 60 -7 121 -42 155 l-31 32 0 -41z"/>
<path d="M622 818 c-29 -14 -40 -55 -20 -75 21 -20 93 -35 136 -27 71 13 136
61 110 81 -40 32 -177 44 -226 21z"/>
<path d="M879 719 c-22 -21 -55 -41 -83 -49 -41 -11 -46 -16 -46 -41 l0 -29
73 0 c83 0 141 22 176 65 24 32 24 32 -39 66 l-45 24 -36 -36z"/>
</g>
</svg>
